<svg version="1.1" id="Layer_1" xmlns="http://www.w3.org/2000/svg" x="0" y="0" viewBox="0 0 800 800" xml:space="preserve"><style>.st1{fill:#fff}</style><path fill="#9900fc" d="M0 400V0h800v800H0z"/><path class="st1" d="M98.5 335.5V383h35.3v-47.5h45.4v128.9h-45.4v-48.1H98.5v48.1H53.1V335.5h45.4zM326 335.5l-45 84.2v44.7h-45.4v-44.7l-45-84.2h45.2l13.6 29.5 9.2 23.4 9.2-23.4 13.6-29.5H326zM405.6 335.5c17.4 0 30.7 3.9 40 11.7 9.3 7.8 13.9 19.1 13.9 33.8 0 14.6-4.6 25.8-13.9 33.7-9.3 7.9-22.6 11.8-40 11.8h-22.8v37.9h-45.4V335.5h68.2zm-7.4 58.8c4.9 0 8.8-1.1 11.7-3.2 2.9-2.1 4.3-5.5 4.3-10.1s-1.4-7.9-4.3-10.1c-2.9-2.1-6.8-3.2-11.7-3.2h-15.4v26.6h15.4zM520.4 335.5V383h35.3v-47.5H601v128.9h-45.4v-48.1h-35.3v48.1H475V335.5h45.4zM608.8 464.5l41.7-128.9H705l41.9 128.9h-46.4l-5.8-24.6H660l-6 24.6h-45.2zm63.3-74.1l-5.3 21.1H688l-5.1-21.1-5.3-21.9h-.6l-4.9 21.9z"/></svg>