<?xml version="1.0" encoding="utf-8"?>
<!-- Generator: Adobe Illustrator 25.2.0, SVG Export Plug-In . SVG Version: 6.00 Build 0)  -->
<svg version="1.1" id="Layer_1" xmlns="http://www.w3.org/2000/svg" xmlns:xlink="http://www.w3.org/1999/xlink" x="0px" y="0px"
	 viewBox="0 0 369.2 421.7" style="enable-background:new 0 0 369.2 421.7;" xml:space="preserve">
<style type="text/css">
	.st0{fill:#020202;}
	.st1{fill:#FFFFFF;}
</style>
<g>
	<path class="st0" d="M0,0c123,0,245.9,0,368.9,0c0,117.1,0,234.2,0,351.2c-123,0-246,0-368.9,0C0,234.1,0,117.1,0,0L0,0z"/>
	<path class="st1" d="M28.2,24.2c21.7,0,43.4,0,65,0c0,7.8,0,15.5,0,23.3c-15.3,0-30.6,0-45.9,0c0,10.8,0,21.6,0,32.4
		c13.3,0,26.6,0,39.8,0c0,7.8,0,15.5,0,23.3c-13.3,0-26.5,0-39.8,0c0,19.5,0,39,0,58.4c-6.4,0-12.8,0-19.2,0
		C28.2,115.9,28.2,70.1,28.2,24.2L28.2,24.2z"/>
	<path class="st1" d="M105.9,24.2c14,0,28.1,0,42.1,0c7.6,0.4,16.2,1,21.8,6.9c8.5,8.9,10.7,21.9,10.4,33.8
		c-0.2,9.9-2.5,20.3-9.3,27.8c-3.7,4.3-9.1,6.8-14.5,8.4c6.4,5.7,11.1,13,14.5,20.9c5.9,13.1,11.1,26.5,16.6,39.7
		c-7.3,0-14.7,0-22,0c-6.4-14.6-12.8-29.3-19.6-43.7c-2.2-4.5-4.4-9.4-8.8-12.1c-4-1.8-8.6-1.6-12.9-1.6c0,19.2,0,38.3,0,57.5
		c-6.1,0-12.2,0-18.3,0C105.9,115.9,105.9,70.1,105.9,24.2L105.9,24.2z"/>
	<path class="st1" d="M198.6,24.2c22,0,44,0,66,0c0,7.8,0,15.5,0,23.3c-16,0-32,0-47.9,0c0,10.1,0,20.3,0,30.4c14.9,0,29.8,0,44.7,0
		c0,7.8,0,15.5,0,23.2c-14.9,0-29.8,0-44.7,0c0,12.4,0,24.8,0,37.3c16.5,0,33.1,0,49.6,0c0,7.8,0,15.5,0,23.2c-22.6,0-45.1,0-67.7,0
		C198.6,115.9,198.6,70.1,198.6,24.2L198.6,24.2z"/>
	<path class="st1" d="M279,24.2c22,0,44.1,0,66.1,0c0,7.8,0,15.5,0,23.2c-16.1,0.1-32.1,0-48.2,0c0,10.1,0,20.3,0,30.4
		c14.9,0,29.8,0,44.7,0c0,7.8,0,15.5,0,23.2c-14.9,0-29.8,0-44.7,0c0,12.4,0,24.8,0,37.3c16.6,0,33.2,0,49.8,0c0,7.8,0,15.5,0,23.3
		c-22.6,0-45.2,0-67.7,0C279,115.9,279,70.1,279,24.2L279,24.2z"/>
	<path class="st0" d="M124.2,47.5c9.3,0.1,18.6-0.4,27.8,0.6c5.3,1.2,8.3,6.7,8.9,11.7c0.6,6.2,0.6,13.3-3.6,18.4
		c-2.4,3.3-6.8,3.5-10.5,3.9c-7.6,0.5-15.1,0.3-22.7,0.3C124.2,70.8,124.2,59.2,124.2,47.5L124.2,47.5z"/>
	<path class="st1" d="M55.8,187.8c9.6-2.2,20.6-0.6,28.1,6.4c9.1,8.6,12.5,21.3,13.9,33.3c-5.3,1.9-10.7,3.5-16,5.2
		c-1.1-7-3.6-14.5-9.4-19c-5.6-4.4-14.2-3.6-19.4,1.1c-5.2,4.4-8.1,10.9-9.8,17.4c-3.1,12.4-2.6,25.2-2,37.9
		c1.1,9,2.7,18.3,7.6,26.2c2.9,4.7,7.6,8.8,13.4,8.9c8.4,0.7,15.6-5.2,20.4-11.5c0-5.7,0-11.4,0-17.1c-6.2,0-12.3,0-18.5,0
		c0-7.8,0-15.5,0-23.3c11.6,0,23.2,0,34.7,0c-0.1,18.2,0.1,36.4-0.1,54.7c-4.2,7.8-11.6,13.6-19.4,17.6c-10,5.3-22.9,4.9-32.2-1.7
		c-10-7-15.3-18.6-18.7-30c-5-18.5-5.7-38-3.2-57c1.6-11.9,5.1-23.8,11.5-34.1C41.1,195.8,47.7,189.9,55.8,187.8L55.8,187.8z"/>
	<path class="st1" d="M112.4,189.2c22,0,44,0,66,0c0,7.8,0,15.5,0,23.3c-16,0-32,0-47.9,0c0,10.1,0,20.3,0,30.4
		c14.9,0,29.8,0,44.7,0c0,7.8,0,15.5,0,23.2c-14.9,0-29.8,0-44.7,0c0,12.5,0,25,0,37.5c16.5,0,33.1,0,49.6,0c0,7.7,0,15.3,0,23
		c-22.6,0-45.1,0-67.7,0C112.4,280.9,112.4,235.1,112.4,189.2L112.4,189.2z"/>
	<path class="st1" d="M192.5,189.2c22.1,0,44.1,0,66.1,0c0,7.8,0,15.5,0,23.3c-16.1,0-32.1,0-48.2,0c0,10.1,0,20.3,0,30.4
		c14.9,0,29.8,0,44.7,0c0,7.8,0,15.5,0,23.2c-14.9,0-29.8,0-44.7,0c0,12.5,0,25,0,37.5c16.6,0,33.2,0,49.8,0c0,7.7,0,15.3,0,23
		c-22.6,0-45.2,0-67.8,0C192.5,280.9,192.5,235.1,192.5,189.2L192.5,189.2z"/>
	<path class="st1" d="M272.3,189.2c5.6,0,11.1,0,16.7,0c0.2,20.3-0.4,40.6,0.3,60.9c11.2-20.4,22.5-40.6,33.8-60.9
		c7.5,0,15.1-0.1,22.6,0c-10.4,17.9-20.9,35.6-31.1,53.5c10.6,28.1,21.9,55.9,32.7,83.9c-7.3,0-14.5,0-21.8,0
		c-7.4-21.6-15.2-43-22.7-64.5c-4.1,6.9-8.1,13.9-12.3,20.8c-0.6,1.2-1.6,2.3-1.4,3.8c0,13.3,0,26.6,0,39.9c-5.6,0-11.1,0-16.7,0
		C272.3,280.9,272.3,235.1,272.3,189.2L272.3,189.2z"/>
	<path class="st0" d="M62.2,364.3c12.7-3.3,26.6,3.5,32.6,14.9c4,7.6,4.5,16.9,1.6,24.9C92.8,413.6,84,421,74,422.6
		c-7.5,1.1-15.7-0.1-22-4.7c-4.4-3.3-8.2-7.5-10.3-12.6c-3.8-8.8-3.2-19.5,1.9-27.6C47.7,370.9,54.6,366,62.2,364.3L62.2,364.3z"/>
	<path class="st0" d="M173.4,364.6c12.4-3.8,26.4,2,33,13c5.1,8.2,5.7,19,1.9,27.9c-3.7,8.3-11.5,14.9-20.4,16.8
		c-6.3,1.2-13,0.8-18.9-1.9c-11-5.1-18.2-17.2-17.1-29.3C152.5,378.9,161.6,367.8,173.4,364.6L173.4,364.6z"/>
	<path class="st0" d="M333.3,364.3c12.4-3.2,26,3.2,32.2,14.3c4.2,7.2,4.8,16.2,2.4,24.1c-3.3,10.3-12.7,18.6-23.5,19.9
		c-5.7,0.7-11.6,0.1-16.8-2.3c-10.7-5-17.9-16.6-17.1-28.5C310.5,378.9,320.6,366.9,333.3,364.3L333.3,364.3z"/>
	<path class="st0" d="M3.3,364.7c10.2,0,20.4,0,30.6,0c0,3.5,0,7,0,10.5c-3.3,0-6.7,0-10,0c0,15.5,0,31,0,46.5
		c-3.6-0.1-7.1,0-10.6,0c0.1-15.5,0-31,0-46.5c-3.3,0-6.7,0-10,0C3.3,371.7,3.3,368.2,3.3,364.7L3.3,364.7z"/>
	<path class="st0" d="M109.3,421.7c0.1-19,0-38,0-57c8.2,0.3,16.6-0.9,24.6,1.5c8.8,3,11.9,14.6,7.9,22.5c-1.8,3.7-5.5,6.2-9.4,7.4
		c4.4,8.6,9,17.1,13.7,25.5c-3.9,0-7.7,0-11.6,0c-4.5-8-8.5-16.3-13.2-24.2l-1.4-0.2c0,8.1,0,16.3,0,24.4
		C116.4,421.6,112.8,421.7,109.3,421.7L109.3,421.7z"/>
	<path class="st0" d="M221.1,364.7c3.3,0,6.6,0,10,0c8.3,12.6,16.7,25.2,25.1,37.7c0-12.6,0-25.2,0-37.8c3.5,0,7.1,0,10.6,0
		c0,19,0,38,0,57c-3.4,0-6.8,0-10.2,0c-8.1-12.6-16.7-25-24.9-37.6c0,12.5,0,25.1,0,37.6c-3.6,0-7.1,0-10.6,0
		C221.1,402.7,221.1,383.7,221.1,364.7L221.1,364.7z"/>
	<path class="st0" d="M274.3,364.7c10.2,0,20.4,0,30.6,0c0,3.5,0,7,0,10.5c-3.3,0-6.7,0-10,0c0,15.5,0,31,0,46.5
		c-3.5,0-7.1,0-10.6,0c0-15.5,0-31,0-46.5c-3.3,0-6.7,0-10,0C274.3,371.7,274.3,368.2,274.3,364.7L274.3,364.7z"/>
	<path class="st1" d="M63.4,374.6c10.6-3.5,22.7,4.5,23.9,15.5c1.9,10-5.3,20.7-15.4,22.2c-9.7,1.8-20.3-5.2-21.7-15.2
		C48.2,387.7,53.9,377.1,63.4,374.6L63.4,374.6z"/>
	<path class="st1" d="M176.4,374.5c6.6-1.8,14.1,0.3,18.6,5.5c8.2,8.4,6.2,24.1-4.2,29.9c-9.8,6.3-24.5,0.7-27.6-10.5
		C160,389.4,165.7,376.9,176.4,374.5L176.4,374.5z"/>
	<path class="st1" d="M334.4,374.6c6.1-1.8,13.2-0.3,17.8,4.1c5.1,4.4,7.2,11.7,6,18.3c-1.4,8.6-9.4,15.7-18.2,15.5
		c-8.9,0.3-17.6-6.5-18.8-15.5C319.2,387.7,324.9,377,334.4,374.6L334.4,374.6z"/>
	<path class="st1" d="M119.9,375.2c3.1,0,6.3-0.2,9.4,0.6c4.2,1.4,4.9,8.3,0.8,10.2c-3.2,1.3-6.8,1-10.2,1.1
		C119.9,383.1,119.9,379.2,119.9,375.2L119.9,375.2z"/>
</g>
</svg>
