<svg id="Layer_1" data-name="Layer 1" xmlns="http://www.w3.org/2000/svg" viewBox="0 0 648 175.06"><defs><style>.cls-1{fill:#231f20;}.cls-2{fill:#0088ce;}</style></defs><path class="cls-1" d="M473.65,78.9h5.5a1,1,0,0,1,1,1v5.77a1,1,0,0,1-1,1h-5.5v13.49c0,2.82,1.31,3.74,3.8,3.74.54,0,1.11,0,1.6-.09a1,1,0,0,1,1.09,1v5.36a1,1,0,0,1-.7.94,14.25,14.25,0,0,1-4.22.54c-6.29,0-10.23-3.73-10.23-10v-15h-4.85a1,1,0,0,1-1-1V79.88a1,1,0,0,1,1-1h.66c3.41,0,5-2.24,5-5.12V70.24a1,1,0,0,1,1-1h5.9a1,1,0,0,1,1,1Z" transform="translate(-34.22 -34.22)"/><path class="cls-1" d="M515.54,95c0,9.9-7.28,17.11-16.92,17.11S481.71,104.92,481.71,95,489,77.91,498.62,77.91,515.54,85.05,515.54,95m-8.72,0c0-6.1-3.94-9.18-8.2-9.18s-8.19,3.08-8.19,9.18,3.93,9.18,8.19,9.18,8.2-3.09,8.2-9.18" transform="translate(-34.22 -34.22)"/><path class="cls-1" d="M435.42,111.14h-6.75a1,1,0,0,1-1-1V79.88a1,1,0,0,1,1-1h6.49a1,1,0,0,1,1,1v3c2-3.34,5.83-4.85,9.3-4.85,8,0,11.67,5.7,11.67,12.78v19.34a1,1,0,0,1-1,1h-6.75a1,1,0,0,1-1-1V92.33c0-3.61-1.77-6.42-6-6.42-3.8,0-6,3-6,6.68v17.57a1,1,0,0,1-1,1" transform="translate(-34.22 -34.22)"/><path class="cls-1" d="M423.88,95c0,9.9-7.27,17.11-16.91,17.11S390.05,104.92,390.05,95,397.33,77.91,407,77.91,423.88,85.05,423.88,95m-8.72,0c0-6.1-3.93-9.18-8.19-9.18s-8.2,3.08-8.2,9.18,3.94,9.18,8.2,9.18,8.19-3.09,8.19-9.18" transform="translate(-34.22 -34.22)"/><path class="cls-1" d="M389.73,86.39a1,1,0,0,1-1.12,1,13.54,13.54,0,0,0-1.51-.09c-4.45,0-8.32,2.17-8.32,9.11v13.77a1,1,0,0,1-1,1H371a1,1,0,0,1-1-1V79.88a1,1,0,0,1,1-1h6.49a1,1,0,0,1,1,1v3.8c2-4.26,6.42-5.05,9.17-5.05.39,0,.76,0,1.13.05a1,1,0,0,1,.91,1Z" transform="translate(-34.22 -34.22)"/><path class="cls-1" d="M366.25,95c0,9.9-7.27,17.11-16.91,17.11S332.43,104.92,332.43,95s7.27-17.11,16.91-17.11S366.25,85.05,366.25,95m-8.71,0c0-6.1-3.94-9.18-8.2-9.18s-8.19,3.08-8.19,9.18,3.93,9.18,8.19,9.18,8.2-3.09,8.2-9.18" transform="translate(-34.22 -34.22)"/><path class="cls-1" d="M324.36,78.9h5.51a1,1,0,0,1,1,1v5.77a1,1,0,0,1-1,1h-5.51v13.49c0,2.82,1.31,3.74,3.81,3.74.53,0,1.11,0,1.6-.09a1,1,0,0,1,1.08,1v5.36a1,1,0,0,1-.69.94,14.3,14.3,0,0,1-4.22.54c-6.3,0-10.23-3.73-10.23-10v-15h-4.85a1,1,0,0,1-1-1V79.88a1,1,0,0,1,1-1h.65c3.41,0,5-2.24,5-5.12V70.24a1,1,0,0,1,1-1h5.9a1,1,0,0,1,1,1Z" transform="translate(-34.22 -34.22)"/><path class="cls-1" d="M646.9,149.27a1,1,0,0,1-1.12,1,13.26,13.26,0,0,0-1.5-.08c-4.46,0-8.33,2.16-8.33,9.11V173a1,1,0,0,1-1,1h-6.75a1,1,0,0,1-1-1V142.76a1,1,0,0,1,1-1h6.49a1,1,0,0,1,1,1v3.79c2-4.26,6.43-5.05,9.18-5.05.39,0,.76,0,1.12.05a1,1,0,0,1,.91,1Z" transform="translate(-34.22 -34.22)"/><path class="cls-1" d="M587.57,149.27a1,1,0,0,1-1.12,1,13.26,13.26,0,0,0-1.5-.08c-4.46,0-8.33,2.16-8.33,9.11V173a1,1,0,0,1-1,1h-6.75a1,1,0,0,1-1-1V142.76a1,1,0,0,1,1-1h6.49a1,1,0,0,1,1,1v3.79c2-4.26,6.43-5.05,9.18-5.05.39,0,.76,0,1.12.05a1,1,0,0,1,.91,1Z" transform="translate(-34.22 -34.22)"/><path class="cls-1" d="M653.89,185.35l7-15.39-13-26.78a1,1,0,0,1,.89-1.41h7.56a1,1,0,0,1,.89.58l8.33,18.3,7.68-18.28a1,1,0,0,1,.9-.6h7.13a1,1,0,0,1,.9,1.39l-19.37,43a1,1,0,0,1-.89.58h-7.08a1,1,0,0,1-.9-1.39" transform="translate(-34.22 -34.22)"/><path class="cls-1" d="M612.61,169.63c-1.37,3.08-4.72,5.31-9,5.31-9.51,0-15.8-7.41-15.8-17.18,0-9.44,6.16-16.91,15.53-16.91,5.77,0,8.46,3.08,9.25,4.92v-3a1,1,0,0,1,1-1H620a1,1,0,0,1,1,1v25.44c0,2,.1,3.69.18,4.78a1,1,0,0,1-1,1.05h-6.41a1,1,0,0,1-1-.86,25.9,25.9,0,0,1-.21-3.14Zm-8-2.23c4.52,0,7.93-3.74,7.93-9.64s-3.35-9.37-7.93-9.37-8.07,3.47-8.07,9.37,3.35,9.64,8.07,9.64" transform="translate(-34.22 -34.22)"/><path class="cls-1" d="M530.87,173V127.54a1,1,0,0,1,1-1h6.62a1,1,0,0,1,1,1v17.77c1.45-2.3,5-4.39,9.77-4.39,9.44,0,14.88,7.27,14.88,16.84,0,9.77-6,17.05-15.21,17.05-4.45,0-7.86-2-9.57-4.72V173a1,1,0,0,1-1,1h-6.49a1,1,0,0,1-1-1m16.52-24.31c-4.4,0-8.07,3.21-8.07,9.11S543,167,547.39,167s8-3.28,8-9.18-3.54-9.11-8-9.11" transform="translate(-34.22 -34.22)"/><path class="cls-1" d="M520.25,125.77a5.38,5.38,0,1,1-5.38,5.44,5.37,5.37,0,0,1,5.38-5.44M515.92,173V142.75a1,1,0,0,1,1-1h6.75a1,1,0,0,1,1,1V173a1,1,0,0,1-1,1H516.9a1,1,0,0,1-1-1" transform="translate(-34.22 -34.22)"/><path class="cls-1" d="M501,173V127.54a1,1,0,0,1,1-1h6.75a1,1,0,0,1,1,1V173a1,1,0,0,1-1,1H502a1,1,0,0,1-1-1" transform="translate(-34.22 -34.22)"/><path class="cls-1" d="M461.18,157.89c0,5.84,3.8,9.12,8.26,9.12a7.35,7.35,0,0,0,7.1-4.57,1,1,0,0,1,1.22-.57l5.84,1.95a1,1,0,0,1,.62,1.27c-1.77,5-6.71,9.91-14.78,9.91a16.69,16.69,0,0,1-17-17.11c0-10,7.34-17.1,16.72-17.1,8.26,0,13.16,4.81,14.86,9.92a1,1,0,0,1-.62,1.26l-6,2a1,1,0,0,1-1.23-.58,6.9,6.9,0,0,0-6.84-4.55c-4.45,0-8.19,3.21-8.19,9" transform="translate(-34.22 -34.22)"/><path class="cls-1" d="M444.27,125.77a5.38,5.38,0,1,1-5.38,5.44,5.37,5.37,0,0,1,5.38-5.44M439.94,173V142.75a1,1,0,0,1,1-1h6.74a1,1,0,0,1,1,1V173a1,1,0,0,1-1,1h-6.74a1,1,0,0,1-1-1" transform="translate(-34.22 -34.22)"/><path class="cls-1" d="M425,173V127.54a1,1,0,0,1,1-1h6.75a1,1,0,0,1,1,1V173a1,1,0,0,1-1,1H426a1,1,0,0,1-1-1" transform="translate(-34.22 -34.22)"/><path class="cls-1" d="M388,173V127.54a1,1,0,0,1,1-1h6.62a1,1,0,0,1,1,1v17.77c1.44-2.3,5-4.39,9.77-4.39,9.44,0,14.88,7.27,14.88,16.84,0,9.77-6,17.05-15.21,17.05-4.46,0-7.86-2-9.57-4.72V173a1,1,0,0,1-1,1h-6.49a1,1,0,0,1-1-1m16.52-24.31c-4.39,0-8.06,3.21-8.06,9.11s3.67,9.18,8.06,9.18,8-3.28,8-9.18-3.54-9.11-8-9.11" transform="translate(-34.22 -34.22)"/><path class="cls-1" d="M373.47,170.54c-1.77,3-5.51,4.33-8.92,4.33-7.8,0-12.26-5.7-12.26-12.72v-19.4a1,1,0,0,1,1-1H360a1,1,0,0,1,1,1v17.63c0,3.61,1.84,6.49,5.9,6.49,3.87,0,6.1-2.62,6.1-6.35V142.75a1,1,0,0,1,1-1h6.75a1,1,0,0,1,1,1v25.43c0,1.85.11,3.56.22,4.77a1,1,0,0,1-1,1.07h-6.38a1,1,0,0,1-1-.88,25.82,25.82,0,0,1-.13-2.6" transform="translate(-34.22 -34.22)"/><path class="cls-1" d="M315.71,185.49V142.75a1,1,0,0,1,1-1h6.48a1,1,0,0,1,1,1v2.95c1.44-2.49,5.05-4.65,9.9-4.65,9.43,0,14.87,7.21,14.87,16.78,0,9.77-6.09,17-15.2,17-4.46,0-7.74-1.77-9.31-3.94v14.62a1,1,0,0,1-1,1H316.7a1,1,0,0,1-1-1m16.65-36.64c-4.46,0-8.06,3.34-8.06,9s3.6,9.12,8.06,9.12,8-3.35,8-9.12-3.54-9-8-9" transform="translate(-34.22 -34.22)"/><path class="cls-1" d="M76.78,78.9V53.54a3,3,0,0,0-3-2.95H56.62a3,3,0,0,0-2.95,2.95V63.88c0,8.47-4.62,15-14.64,15H37.17a3,3,0,0,0-3,2.95V98.68a3,3,0,0,0,3,2.95H51.36v44.1C51.36,164,62.92,175,81.41,175a43,43,0,0,0,12.37-1.57,2.94,2.94,0,0,0,2.07-2.82V155A3,3,0,0,0,92.58,152a45.88,45.88,0,0,1-4.63.25c-7.32,0-11.17-2.7-11.17-11V101.63h29.48v104.7a3,3,0,0,0,2.95,2.95h19.71a3,3,0,0,0,3-2.95V163.45c4.62,6.35,14.25,11.55,27.35,11.55,26.77,0,44.68-20.22,44.68-48.92,0-28.11-16-49.3-43.72-49.3-14.25,0-24.84,6.36-29.08,13.68A11.55,11.55,0,0,0,119.54,78.9Zm78.39,73.18c-13.09,0-23.68-9.05-23.68-25.8S142.08,99.7,155.17,99.7s23.5,9.82,23.5,26.58c0,16.95-10.4,25.8-23.5,25.8" transform="translate(-34.22 -34.22)"/><path class="cls-1" d="M237,34.22H217.25a3,3,0,0,0-3,3V171.06a3,3,0,0,0,3,3H237a3,3,0,0,0,2.95-3V37.17a3,3,0,0,0-2.95-3" transform="translate(-34.22 -34.22)"/><path class="cls-2" d="M277.62,77.91a17.11,17.11,0,1,1,0,34.22,17.11,17.11,0,0,1,0-34.22" transform="translate(-34.22 -34.22)"/><path class="cls-2" d="M277.62,140.78a17.11,17.11,0,1,1,0,34.22,17.11,17.11,0,0,1,0-34.22" transform="translate(-34.22 -34.22)"/></svg>